<mxfile host="app.diagrams.net" modified="2024-03-03T23:02:03.070Z" agent="Mozilla/5.0 (X11; Linux x86_64; rv:120.0) Gecko/20100101 Firefox/120.0" etag="-ceDI6dVm47oAUDBasFb" version="23.1.7" type="device">
  <diagram id="1JV1doHbeFtn5sFw_QAt" name="1">
    <mxGraphModel dx="2087" dy="885" grid="1" gridSize="10" guides="1" tooltips="1" connect="1" arrows="1" fold="1" page="0" pageScale="1" pageWidth="827" pageHeight="1169" math="0" shadow="0">
      <root>
        <mxCell id="0" />
        <mxCell id="1" parent="0" />
        <mxCell id="hrglLHFbYydijVb5h0Rf-2" value="" style="rounded=0;whiteSpace=wrap;html=1;fillColor=default;fontColor=#333333;strokeColor=#666666;gradientColor=none;sketch=1;curveFitting=1;jiggle=2;connectable=0;" vertex="1" parent="1">
          <mxGeometry x="30" y="200" width="660" height="540" as="geometry" />
        </mxCell>
        <mxCell id="lDC4hBJUyMG9qND6n75t-1" value="" style="image;html=1;image=img/lib/clip_art/computers/Laptop_128x128.png;flipH=1;" vertex="1" parent="1">
          <mxGeometry x="310" y="10" width="80" height="80" as="geometry" />
        </mxCell>
        <mxCell id="lDC4hBJUyMG9qND6n75t-2" value="REST-Client" style="text;html=1;align=left;verticalAlign=middle;resizable=0;points=[];autosize=1;strokeColor=none;fillColor=none;fontStyle=1" vertex="1" parent="1">
          <mxGeometry x="390" y="40" width="90" height="30" as="geometry" />
        </mxCell>
        <mxCell id="RajtyiHtLD2l0FPf-niU-12" value="&lt;div&gt;&lt;font color=&quot;#003366&quot;&gt;main.js&lt;/font&gt;&lt;/div&gt;&lt;div&gt;&lt;b&gt;Express App Router&lt;br&gt;&lt;/b&gt;&lt;/div&gt;" style="html=1;align=center;verticalAlign=middle;dashed=0;whiteSpace=wrap;fillColor=#dae8fc;strokeColor=#6c8ebf;shadow=0;sketch=1;curveFitting=1;jiggle=2;connectable=0;" vertex="1" parent="1">
          <mxGeometry x="40" y="210" width="640" height="30" as="geometry" />
        </mxCell>
        <mxCell id="L9pA1U7XB0M4pn75lFGJ-1" value="&lt;div&gt;&lt;span style=&quot;font-weight: normal;&quot;&gt;&lt;font color=&quot;#003366&quot;&gt;language.controller.js&lt;/font&gt;&lt;/span&gt;&lt;br&gt;&lt;/div&gt;&lt;div&gt;HTTP Handler für Sprachen&lt;br&gt;&lt;/div&gt;" style="swimlane;fontStyle=1;childLayout=stackLayout;horizontal=1;startSize=40;fillColor=#e1d5e7;horizontalStack=0;resizeParent=1;resizeParentMax=0;resizeLast=0;collapsible=0;marginBottom=0;whiteSpace=wrap;html=1;strokeColor=#9673a6;swimlaneFillColor=#FFFFFF;rounded=0;glass=0;shadow=0;sketch=1;curveFitting=1;jiggle=2;connectable=0;" vertex="1" parent="1">
          <mxGeometry x="40" y="280" width="200" height="66" as="geometry" />
        </mxCell>
        <mxCell id="L9pA1U7XB0M4pn75lFGJ-6" value="getAllLanguages(req, res)" style="text;strokeColor=none;fillColor=none;align=left;verticalAlign=top;spacingLeft=4;spacingRight=4;overflow=hidden;rotatable=0;points=[[0,0.5],[1,0.5]];portConstraint=eastwest;whiteSpace=wrap;html=1;sketch=1;curveFitting=1;jiggle=2;" vertex="1" parent="L9pA1U7XB0M4pn75lFGJ-1">
          <mxGeometry y="40" width="200" height="26" as="geometry" />
        </mxCell>
        <mxCell id="BOI3xLbNObTuYZvuKY5E-1" value="&lt;div&gt;&lt;span style=&quot;font-weight: normal;&quot;&gt;&lt;font color=&quot;#003366&quot;&gt;snippet.controller.js&lt;/font&gt;&lt;/span&gt;&lt;br&gt;&lt;/div&gt;&lt;div&gt;HTTP Handler für Codeschnipsen&lt;br&gt;&lt;/div&gt;" style="swimlane;fontStyle=1;childLayout=stackLayout;horizontal=1;startSize=40;fillColor=#e1d5e7;horizontalStack=0;resizeParent=1;resizeParentMax=0;resizeLast=0;collapsible=0;marginBottom=0;whiteSpace=wrap;html=1;strokeColor=#9673a6;swimlaneFillColor=#FFFFFF;rounded=0;shadow=0;glass=0;swimlaneLine=1;sketch=1;curveFitting=1;jiggle=2;connectable=0;" vertex="1" parent="1">
          <mxGeometry x="480" y="280" width="200" height="170" as="geometry" />
        </mxCell>
        <mxCell id="BOI3xLbNObTuYZvuKY5E-2" value="&lt;div&gt;search(req, res)&lt;/div&gt;" style="text;strokeColor=none;fillColor=none;align=left;verticalAlign=top;spacingLeft=4;spacingRight=4;overflow=hidden;rotatable=0;points=[[0,0.5],[1,0.5]];portConstraint=eastwest;whiteSpace=wrap;html=1;sketch=1;curveFitting=1;jiggle=2;" vertex="1" parent="BOI3xLbNObTuYZvuKY5E-1">
          <mxGeometry y="40" width="200" height="26" as="geometry" />
        </mxCell>
        <mxCell id="BOI3xLbNObTuYZvuKY5E-3" value="&lt;div&gt;create(req, res)&lt;/div&gt;" style="text;strokeColor=none;fillColor=none;align=left;verticalAlign=top;spacingLeft=4;spacingRight=4;overflow=hidden;rotatable=0;points=[[0,0.5],[1,0.5]];portConstraint=eastwest;whiteSpace=wrap;html=1;gradientColor=none;sketch=1;curveFitting=1;jiggle=2;" vertex="1" parent="BOI3xLbNObTuYZvuKY5E-1">
          <mxGeometry y="66" width="200" height="26" as="geometry" />
        </mxCell>
        <mxCell id="BOI3xLbNObTuYZvuKY5E-4" value="&lt;div&gt;read(req, res)&lt;/div&gt;" style="text;strokeColor=none;fillColor=none;align=left;verticalAlign=top;spacingLeft=4;spacingRight=4;overflow=hidden;rotatable=0;points=[[0,0.5],[1,0.5]];portConstraint=eastwest;whiteSpace=wrap;html=1;sketch=1;curveFitting=1;jiggle=2;" vertex="1" parent="BOI3xLbNObTuYZvuKY5E-1">
          <mxGeometry y="92" width="200" height="26" as="geometry" />
        </mxCell>
        <mxCell id="BOI3xLbNObTuYZvuKY5E-5" value="&lt;div&gt;update(req, res)&lt;/div&gt;" style="text;strokeColor=none;fillColor=none;align=left;verticalAlign=top;spacingLeft=4;spacingRight=4;overflow=hidden;rotatable=0;points=[[0,0.5],[1,0.5]];portConstraint=eastwest;whiteSpace=wrap;html=1;sketch=1;curveFitting=1;jiggle=2;" vertex="1" parent="BOI3xLbNObTuYZvuKY5E-1">
          <mxGeometry y="118" width="200" height="26" as="geometry" />
        </mxCell>
        <mxCell id="BOI3xLbNObTuYZvuKY5E-6" value="&lt;div&gt;remove(req, res)&lt;/div&gt;" style="text;strokeColor=none;fillColor=none;align=left;verticalAlign=top;spacingLeft=4;spacingRight=4;overflow=hidden;rotatable=0;points=[[0,0.5],[1,0.5]];portConstraint=eastwest;whiteSpace=wrap;html=1;sketch=1;curveFitting=1;jiggle=2;" vertex="1" parent="BOI3xLbNObTuYZvuKY5E-1">
          <mxGeometry y="144" width="200" height="26" as="geometry" />
        </mxCell>
        <mxCell id="LIBgxe_sLfWWHGZ5yxgo-1" value="" style="endArrow=none;html=1;rounded=0;entryX=1.015;entryY=-0.038;entryDx=0;entryDy=0;entryPerimeter=0;fillColor=#e1d5e7;strokeColor=#9673a6;sketch=1;curveFitting=1;jiggle=2;" edge="1" parent="BOI3xLbNObTuYZvuKY5E-1">
          <mxGeometry width="50" height="50" relative="1" as="geometry">
            <mxPoint x="-1" y="93" as="sourcePoint" />
            <mxPoint x="203" y="93.01199999999994" as="targetPoint" />
          </mxGeometry>
        </mxCell>
        <mxCell id="BOI3xLbNObTuYZvuKY5E-7" value="&lt;div&gt;&lt;span style=&quot;font-weight: normal;&quot;&gt;&lt;font color=&quot;#003366&quot;&gt;snippet.service.js&lt;/font&gt;&lt;/span&gt;&lt;br&gt;&lt;/div&gt;&lt;div&gt;Fachlogik für Codeschnipsel&lt;br&gt;&lt;/div&gt;" style="swimlane;fontStyle=1;childLayout=stackLayout;horizontal=1;startSize=40;fillColor=#d5e8d4;horizontalStack=0;resizeParent=1;resizeParentMax=0;resizeLast=0;collapsible=0;marginBottom=0;whiteSpace=wrap;html=1;strokeColor=#82b366;swimlaneFillColor=#FFFFFF;shadow=0;glass=0;sketch=1;curveFitting=1;jiggle=2;connectable=0;" vertex="1" parent="1">
          <mxGeometry x="480" y="490" width="200" height="170" as="geometry" />
        </mxCell>
        <mxCell id="BOI3xLbNObTuYZvuKY5E-8" value="&lt;div&gt;search(query)&lt;/div&gt;" style="text;strokeColor=none;fillColor=none;align=left;verticalAlign=top;spacingLeft=4;spacingRight=4;overflow=hidden;rotatable=0;points=[[0,0.5],[1,0.5]];portConstraint=eastwest;whiteSpace=wrap;html=1;shadow=1;sketch=1;curveFitting=1;jiggle=2;" vertex="1" parent="BOI3xLbNObTuYZvuKY5E-7">
          <mxGeometry y="40" width="200" height="26" as="geometry" />
        </mxCell>
        <mxCell id="BOI3xLbNObTuYZvuKY5E-9" value="&lt;div&gt;create(snippet)&lt;/div&gt;" style="text;strokeColor=none;fillColor=none;align=left;verticalAlign=top;spacingLeft=4;spacingRight=4;overflow=hidden;rotatable=0;points=[[0,0.5],[1,0.5]];portConstraint=eastwest;whiteSpace=wrap;html=1;gradientColor=none;sketch=1;curveFitting=1;jiggle=2;" vertex="1" parent="BOI3xLbNObTuYZvuKY5E-7">
          <mxGeometry y="66" width="200" height="26" as="geometry" />
        </mxCell>
        <mxCell id="BOI3xLbNObTuYZvuKY5E-10" value="&lt;div&gt;read(id)&lt;br&gt;&lt;/div&gt;" style="text;strokeColor=none;fillColor=none;align=left;verticalAlign=top;spacingLeft=4;spacingRight=4;overflow=hidden;rotatable=0;points=[[0,0.5],[1,0.5]];portConstraint=eastwest;whiteSpace=wrap;html=1;sketch=1;curveFitting=1;jiggle=2;" vertex="1" parent="BOI3xLbNObTuYZvuKY5E-7">
          <mxGeometry y="92" width="200" height="26" as="geometry" />
        </mxCell>
        <mxCell id="BOI3xLbNObTuYZvuKY5E-11" value="&lt;div&gt;update(id, snippet)&lt;/div&gt;" style="text;strokeColor=none;fillColor=none;align=left;verticalAlign=top;spacingLeft=4;spacingRight=4;overflow=hidden;rotatable=0;points=[[0,0.5],[1,0.5]];portConstraint=eastwest;whiteSpace=wrap;html=1;sketch=1;curveFitting=1;jiggle=2;" vertex="1" parent="BOI3xLbNObTuYZvuKY5E-7">
          <mxGeometry y="118" width="200" height="26" as="geometry" />
        </mxCell>
        <mxCell id="BOI3xLbNObTuYZvuKY5E-12" value="remove(id)" style="text;strokeColor=none;fillColor=none;align=left;verticalAlign=top;spacingLeft=4;spacingRight=4;overflow=hidden;rotatable=0;points=[[0,0.5],[1,0.5]];portConstraint=eastwest;whiteSpace=wrap;html=1;sketch=1;curveFitting=1;jiggle=2;" vertex="1" parent="BOI3xLbNObTuYZvuKY5E-7">
          <mxGeometry y="144" width="200" height="26" as="geometry" />
        </mxCell>
        <mxCell id="hrglLHFbYydijVb5h0Rf-1" value="&lt;div&gt;&lt;font color=&quot;#003366&quot;&gt;database.js&lt;/font&gt;&lt;/div&gt;&lt;div&gt;&lt;b&gt;Eingebettete JSON-Datenbank&lt;br&gt;&lt;/b&gt;&lt;/div&gt;" style="html=1;align=center;verticalAlign=middle;dashed=0;whiteSpace=wrap;fillColor=#dae8fc;strokeColor=#6c8ebf;shadow=0;sketch=1;curveFitting=1;jiggle=2;connectable=0;" vertex="1" parent="1">
          <mxGeometry x="40" y="700" width="640" height="30" as="geometry" />
        </mxCell>
        <mxCell id="nAUWIDWBLpGxP5DyQk3z-3" value="" style="group" vertex="1" connectable="0" parent="1">
          <mxGeometry x="-10" y="180" width="80" height="70" as="geometry" />
        </mxCell>
        <mxCell id="nAUWIDWBLpGxP5DyQk3z-1" value="" style="image;html=1;image=img/lib/clip_art/computers/Server_Rack_128x128.png" vertex="1" parent="nAUWIDWBLpGxP5DyQk3z-3">
          <mxGeometry x="8.88888888888889" width="71.11111111111111" height="62.22222222222222" as="geometry" />
        </mxCell>
        <mxCell id="nAUWIDWBLpGxP5DyQk3z-2" value="" style="image;html=1;image=img/lib/clip_art/general/Earth_globe_128x128.png" vertex="1" parent="nAUWIDWBLpGxP5DyQk3z-3">
          <mxGeometry y="31.11111111111111" width="35.55555555555556" height="38.88888888888889" as="geometry" />
        </mxCell>
        <mxCell id="V9Flt7uroU3u9hW9-WkU-1" value="" style="endArrow=classic;html=1;startSize=14;endSize=14;sourcePerimeterSpacing=8;targetPerimeterSpacing=8;rounded=0;exitX=0;exitY=1;exitDx=0;exitDy=0;sketch=1;curveFitting=1;jiggle=2;" edge="1" parent="1">
          <mxGeometry width="50" height="50" relative="1" as="geometry">
            <mxPoint x="320" y="90" as="sourcePoint" />
            <mxPoint x="320" y="190" as="targetPoint" />
          </mxGeometry>
        </mxCell>
        <mxCell id="V9Flt7uroU3u9hW9-WkU-2" value="&lt;div&gt;GET&lt;/div&gt;&lt;div&gt;POST&lt;/div&gt;&lt;div&gt;PUT&lt;/div&gt;&lt;div&gt;PATCH&lt;/div&gt;&lt;div&gt;DELETE&lt;br&gt;&lt;/div&gt;" style="text;html=1;align=right;verticalAlign=top;resizable=0;points=[];autosize=1;strokeColor=none;fillColor=none;fontFamily=Courier New;spacing=0;spacingRight=5;" vertex="1" parent="1">
          <mxGeometry x="250" y="90" width="70" height="80" as="geometry" />
        </mxCell>
        <mxCell id="oDxtv22jGNxKgUuoywhE-1" value="" style="endArrow=classic;html=1;startSize=14;endSize=14;sourcePerimeterSpacing=8;targetPerimeterSpacing=8;rounded=0;entryX=1;entryY=1;entryDx=0;entryDy=0;shadow=0;sketch=1;curveFitting=1;jiggle=2;" edge="1" parent="1">
          <mxGeometry width="50" height="50" relative="1" as="geometry">
            <mxPoint x="380" y="190" as="sourcePoint" />
            <mxPoint x="380" y="90" as="targetPoint" />
          </mxGeometry>
        </mxCell>
        <mxCell id="oDxtv22jGNxKgUuoywhE-2" value="Ergebnis" style="text;html=1;align=center;verticalAlign=top;resizable=0;points=[];autosize=1;strokeColor=none;fillColor=none;spacing=0;rotation=90;connectable=0;" vertex="1" parent="1">
          <mxGeometry x="356" y="140" width="70" height="20" as="geometry" />
        </mxCell>
        <mxCell id="TrVPR_A-0th3CWtzz5TY-1" value="" style="endArrow=classic;html=1;startSize=14;endSize=14;sourcePerimeterSpacing=8;targetPerimeterSpacing=8;rounded=0;sketch=1;curveFitting=1;jiggle=2;" edge="1" parent="1">
          <mxGeometry width="50" height="50" relative="1" as="geometry">
            <mxPoint x="340" y="250" as="sourcePoint" />
            <mxPoint x="140" y="270" as="targetPoint" />
          </mxGeometry>
        </mxCell>
        <mxCell id="TrVPR_A-0th3CWtzz5TY-2" value="" style="endArrow=classic;html=1;startSize=14;endSize=14;sourcePerimeterSpacing=8;targetPerimeterSpacing=8;rounded=0;sketch=1;curveFitting=1;jiggle=2;" edge="1" parent="1">
          <mxGeometry width="50" height="50" relative="1" as="geometry">
            <mxPoint x="360" y="250" as="sourcePoint" />
            <mxPoint x="570" y="270" as="targetPoint" />
          </mxGeometry>
        </mxCell>
        <mxCell id="TrVPR_A-0th3CWtzz5TY-4" value="" style="endArrow=classic;html=1;startSize=14;endSize=14;sourcePerimeterSpacing=8;targetPerimeterSpacing=8;rounded=0;sketch=1;curveFitting=1;jiggle=2;strokeColor=default;" edge="1" parent="1">
          <mxGeometry width="50" height="50" relative="1" as="geometry">
            <mxPoint x="140" y="360" as="sourcePoint" />
            <mxPoint x="140" y="690" as="targetPoint" />
          </mxGeometry>
        </mxCell>
        <mxCell id="TrVPR_A-0th3CWtzz5TY-5" value="" style="endArrow=classic;html=1;startSize=14;endSize=14;sourcePerimeterSpacing=8;targetPerimeterSpacing=8;rounded=0;sketch=1;curveFitting=1;jiggle=2;strokeColor=default;" edge="1" parent="1">
          <mxGeometry width="50" height="50" relative="1" as="geometry">
            <mxPoint x="579.71" y="664" as="sourcePoint" />
            <mxPoint x="579.71" y="694" as="targetPoint" />
          </mxGeometry>
        </mxCell>
        <mxCell id="TrVPR_A-0th3CWtzz5TY-6" value="" style="endArrow=classic;html=1;startSize=14;endSize=14;sourcePerimeterSpacing=8;targetPerimeterSpacing=8;rounded=0;sketch=1;curveFitting=1;jiggle=2;strokeColor=default;" edge="1" parent="1">
          <mxGeometry width="50" height="50" relative="1" as="geometry">
            <mxPoint x="579.71" y="454" as="sourcePoint" />
            <mxPoint x="579.71" y="484" as="targetPoint" />
          </mxGeometry>
        </mxCell>
        <mxCell id="1bGK6z1lO-5qIANBij3p-1" value="&lt;font style=&quot;font-size: 15px;&quot;&gt;Model&lt;/font&gt;" style="text;html=1;align=left;verticalAlign=middle;resizable=0;points=[];autosize=1;strokeColor=none;fillColor=none;fontSize=15;fontColor=#4C0099;fontStyle=1;rotation=0;spacing=0;" vertex="1" parent="1">
          <mxGeometry x="730" y="470" width="60" height="30" as="geometry" />
        </mxCell>
        <mxCell id="1bGK6z1lO-5qIANBij3p-2" value="" style="shape=crossbar;whiteSpace=wrap;html=1;rounded=1;fontSize=9;strokeColor=#4C0099;fillColor=#e1d5e7;rotation=90;" vertex="1" parent="1">
          <mxGeometry x="585.94" y="590.94" width="268.13" height="20" as="geometry" />
        </mxCell>
        <mxCell id="1bGK6z1lO-5qIANBij3p-3" value="" style="shape=crossbar;whiteSpace=wrap;html=1;rounded=1;fontSize=9;strokeColor=#4C0099;fillColor=#e1d5e7;rotation=90;" vertex="1" parent="1">
          <mxGeometry x="591.25" y="328.75" width="257.5" height="20" as="geometry" />
        </mxCell>
        <mxCell id="1bGK6z1lO-5qIANBij3p-4" value="Controller" style="text;html=1;align=left;verticalAlign=middle;resizable=0;points=[];autosize=1;strokeColor=none;fillColor=none;fontSize=15;fontColor=#4C0099;fontStyle=1;rotation=0;spacing=0;" vertex="1" parent="1">
          <mxGeometry x="730" y="210" width="90" height="30" as="geometry" />
        </mxCell>
        <mxCell id="d6gs-xOr4L5Z6wfExUPK-1" value="Technisches HTTP-Handling" style="text;html=1;align=left;verticalAlign=middle;resizable=0;points=[];autosize=1;strokeColor=none;fillColor=none;fontStyle=2;fontColor=#990000;" vertex="1" parent="1">
          <mxGeometry x="730" y="230" width="170" height="30" as="geometry" />
        </mxCell>
        <mxCell id="gkvGDQcDvzi1lkFAmlw5-1" value="Fachliche Anwendungslogik" style="text;html=1;align=left;verticalAlign=middle;resizable=0;points=[];autosize=1;strokeColor=none;fillColor=none;fontStyle=2;fontColor=#990000;" vertex="1" parent="1">
          <mxGeometry x="730" y="490" width="170" height="30" as="geometry" />
        </mxCell>
        <mxCell id="gkvGDQcDvzi1lkFAmlw5-2" value="Datenmodell" style="text;html=1;align=left;verticalAlign=middle;resizable=0;points=[];autosize=1;strokeColor=none;fillColor=none;fontStyle=2;fontColor=#990000;" vertex="1" parent="1">
          <mxGeometry x="730" y="700" width="90" height="30" as="geometry" />
        </mxCell>
        <mxCell id="LIBgxe_sLfWWHGZ5yxgo-2" value="REST-Collection" style="text;html=1;align=right;verticalAlign=middle;resizable=0;points=[];autosize=1;strokeColor=none;fillColor=none;fontColor=#666666;fontSize=10;" vertex="1" parent="1">
          <mxGeometry x="360" y="330" width="100" height="30" as="geometry" />
        </mxCell>
        <mxCell id="LIBgxe_sLfWWHGZ5yxgo-3" value="REST-Ressource" style="text;html=1;align=right;verticalAlign=middle;resizable=0;points=[];autosize=1;strokeColor=none;fillColor=none;fontColor=#666666;fontSize=10;" vertex="1" parent="1">
          <mxGeometry x="360" y="394" width="100" height="30" as="geometry" />
        </mxCell>
        <mxCell id="LIBgxe_sLfWWHGZ5yxgo-4" value="" style="shape=curlyBracket;whiteSpace=wrap;html=1;rounded=1;flipH=1;labelPosition=right;verticalLabelPosition=middle;align=left;verticalAlign=middle;strokeColor=#666666;" vertex="1" parent="1">
          <mxGeometry x="250" y="324" width="10" height="20" as="geometry" />
        </mxCell>
        <mxCell id="LIBgxe_sLfWWHGZ5yxgo-6" value="" style="shape=curlyBracket;whiteSpace=wrap;html=1;rounded=1;labelPosition=left;verticalLabelPosition=middle;align=right;verticalAlign=middle;strokeColor=#666666;" vertex="1" parent="1">
          <mxGeometry x="460" y="320" width="10" height="50" as="geometry" />
        </mxCell>
        <mxCell id="LIBgxe_sLfWWHGZ5yxgo-7" value="" style="shape=curlyBracket;whiteSpace=wrap;html=1;rounded=1;labelPosition=left;verticalLabelPosition=middle;align=right;verticalAlign=middle;strokeColor=#666666;" vertex="1" parent="1">
          <mxGeometry x="460" y="378" width="10" height="62" as="geometry" />
        </mxCell>
        <mxCell id="LIBgxe_sLfWWHGZ5yxgo-8" value="REST-Collection" style="text;html=1;align=left;verticalAlign=middle;resizable=0;points=[];autosize=1;strokeColor=none;fillColor=none;fontColor=#666666;fontSize=10;" vertex="1" parent="1">
          <mxGeometry x="260" y="320" width="100" height="30" as="geometry" />
        </mxCell>
      </root>
    </mxGraphModel>
  </diagram>
</mxfile>
